<svg xmlns="http://www.w3.org/2000/svg" viewBox="0 0 480 900" width="480" height="900">
  <defs>
    <linearGradient id="b1" x1="0" y1="0" x2="0" y2="1">
      <stop offset="0%" stop-color="#1a1208"/>
      <stop offset="100%" stop-color="#0d0804"/>
    </linearGradient>
  </defs>
  <rect width="480" height="900" fill="url(#b1)"/>
  <!-- 节拍网格 -->
  <g stroke="#FF8C42" stroke-width="0.5" opacity="0.08">
    <line x1="0" y1="100" x2="480" y2="100"/>
    <line x1="0" y1="200" x2="480" y2="200"/>
    <line x1="0" y1="300" x2="480" y2="300"/>
    <line x1="0" y1="400" x2="480" y2="400"/>
    <line x1="0" y1="500" x2="480" y2="500"/>
    <line x1="0" y1="600" x2="480" y2="600"/>
    <line x1="0" y1="700" x2="480" y2="700"/>
    <line x1="0" y1="800" x2="480" y2="800"/>
    <line x1="40" y1="0" x2="40" y2="900"/>
    <line x1="120" y1="0" x2="120" y2="900"/>
    <line x1="200" y1="0" x2="200" y2="900"/>
    <line x1="280" y1="0" x2="280" y2="900"/>
    <line x1="360" y1="0" x2="360" y2="900"/>
    <line x1="440" y1="0" x2="440" y2="900"/>
  </g>
  <!-- LCM 重合点 -->
  <circle cx="240" cy="300" r="80" fill="none" stroke="#FF8C42" stroke-width="1" opacity="0.06"/>
  <circle cx="240" cy="300" r="40" fill="none" stroke="#FF8C42" stroke-width="0.5" opacity="0.04"/>
</svg>